<svg width="37" height="37" viewBox="0 0 37 37" fill="none" xmlns="http://www.w3.org/2000/svg">
<path d="M33.1014 0H4.51357C2.36136 0 0.615234 1.74613 0.615234 3.89834V32.4861C0.615234 34.6383 2.36136 36.3845 4.51357 36.3845H33.1014C35.2536 36.3845 36.9997 34.6383 36.9997 32.4861V3.89834C36.9997 1.74613 35.2536 0 33.1014 0ZM23.1362 31.1623C22.454 31.2841 22.2023 30.8618 22.2023 30.5126C22.2023 30.074 22.2185 27.8325 22.2185 26.0214C22.2185 24.7544 21.7962 23.9504 21.3008 23.5281C24.3057 23.1951 27.4731 22.7809 27.4731 17.5912C27.4731 16.1131 26.9452 15.3741 26.0844 14.4238C26.2224 14.0746 26.6854 12.6371 25.9463 10.7692C24.8174 10.4199 22.2348 12.2229 22.2348 12.2229C21.1627 11.9224 20.0013 11.7681 18.8562 11.7681C17.7111 11.7681 16.5497 11.9224 15.4776 12.2229C15.4776 12.2229 12.895 10.4199 11.7661 10.7692C11.027 12.629 11.4818 14.0665 11.628 14.4238C10.7672 15.3741 10.3611 16.1131 10.3611 17.5912C10.3611 22.7565 13.3904 23.1951 16.3954 23.5281C16.0055 23.8773 15.6563 24.4783 15.5345 25.3392C14.7629 25.6884 12.7894 26.2894 11.6118 24.2103C10.8727 22.9271 9.5408 22.8215 9.5408 22.8215C8.22511 22.8053 9.45146 23.6499 9.45146 23.6499C10.3286 24.056 10.9458 25.6153 10.9458 25.6153C11.7336 28.0274 15.502 27.2153 15.502 27.2153C15.502 28.3442 15.5182 30.1796 15.5182 30.5126C15.5182 30.8618 15.2746 31.2841 14.5843 31.1623C9.22406 29.3675 5.47191 24.2671 5.47191 18.3059C5.47191 10.8504 11.1732 5.18966 18.6288 5.18966C26.0844 5.18966 32.1268 10.8504 32.1268 18.3059C32.1349 24.2671 28.4965 29.3756 23.1362 31.1623ZM15.169 26.2001C15.0147 26.2326 14.8685 26.1676 14.8523 26.062C14.836 25.9402 14.9416 25.8346 15.0959 25.8021C15.2502 25.7859 15.3964 25.8508 15.4127 25.9564C15.437 26.062 15.3315 26.1676 15.169 26.2001ZM14.3975 26.127C14.3975 26.2326 14.2757 26.3219 14.1132 26.3219C13.9345 26.3381 13.8127 26.2488 13.8127 26.127C13.8127 26.0214 13.9345 25.9321 14.097 25.9321C14.2513 25.9158 14.3975 26.0052 14.3975 26.127ZM13.2848 26.0376C13.2523 26.1432 13.0899 26.1919 12.9518 26.1432C12.7975 26.1107 12.692 25.9889 12.7244 25.8833C12.7569 25.7777 12.9194 25.729 13.0574 25.7615C13.2199 25.8102 13.3254 25.9321 13.2848 26.0376ZM12.2859 25.5991C12.2128 25.6884 12.0585 25.6722 11.9367 25.5503C11.8148 25.4448 11.7823 25.2905 11.8636 25.2174C11.9367 25.128 12.091 25.1443 12.2128 25.2661C12.3184 25.3717 12.359 25.5341 12.2859 25.5991ZM11.5468 24.86C11.4737 24.9087 11.3357 24.86 11.2463 24.7382C11.157 24.6164 11.157 24.4783 11.2463 24.4215C11.3357 24.3484 11.4737 24.4052 11.5468 24.527C11.6362 24.6489 11.6362 24.795 11.5468 24.86ZM11.0189 24.0722C10.9458 24.1453 10.824 24.1047 10.7347 24.0235C10.6453 23.9179 10.6291 23.7961 10.7022 23.7392C10.7753 23.6661 10.8971 23.7068 10.9864 23.788C11.0758 23.8936 11.092 24.0154 11.0189 24.0722ZM10.4748 23.4712C10.4423 23.5443 10.3367 23.5606 10.2474 23.5037C10.1418 23.455 10.0931 23.3657 10.1256 23.2926C10.158 23.2438 10.2474 23.2195 10.353 23.2601C10.4585 23.3169 10.5073 23.4063 10.4748 23.4712Z" fill="white"/>
</svg>
