<svg width="37" height="37" viewBox="0 0 37 37" fill="none" xmlns="http://www.w3.org/2000/svg">
<path d="M18.5008 13.8602C17.6441 13.8605 16.8067 14.1149 16.0945 14.5911C15.3823 15.0673 14.8273 15.744 14.4997 16.5356C14.1721 17.3272 14.0865 18.1981 14.2539 19.0384C14.4212 19.8786 14.8339 20.6503 15.4398 21.256C16.0457 21.8617 16.8176 22.2741 17.6579 22.4411C18.4982 22.6082 19.3691 22.5223 20.1606 22.1944C20.9521 21.8664 21.6286 21.3112 22.1045 20.5988C22.5805 19.8864 22.8345 19.049 22.8345 18.1922C22.8336 17.0433 22.3767 15.9417 21.5641 15.1294C20.7516 14.3171 19.6498 13.8606 18.5008 13.8602ZM28.6292 10.5304C28.4087 9.97149 28.0756 9.46388 27.6508 9.03903C27.2259 8.61418 26.7183 8.28116 26.1594 8.06062C24.4539 7.38735 20.3931 7.53841 18.5008 7.53841C16.6085 7.53841 12.5518 7.38166 10.8414 8.06062C10.2825 8.28116 9.77491 8.61418 9.35006 9.03903C8.92521 9.46388 8.59219 9.97149 8.37165 10.5304C7.69919 12.2359 7.84944 16.3007 7.84944 18.1914C7.84944 20.0821 7.69919 24.1421 8.3749 25.8533C8.59544 26.4122 8.92846 26.9198 9.35331 27.3446C9.77816 27.7695 10.2858 28.1025 10.8447 28.323C12.5502 28.9963 16.6109 28.8453 18.5041 28.8453C20.3972 28.8453 24.4523 29.002 26.1627 28.323C26.7216 28.1025 27.2292 27.7695 27.654 27.3446C28.0789 26.9198 28.4119 26.4122 28.6324 25.8533C29.3106 24.1478 29.1547 20.0829 29.1547 18.1922C29.1547 16.3015 29.3106 12.2424 28.6324 10.5312L28.6292 10.5304ZM18.5008 24.8519C17.1837 24.8519 15.8961 24.4613 14.8009 23.7295C13.7057 22.9978 12.8522 21.9577 12.3481 20.7408C11.8441 19.5239 11.7122 18.1848 11.9691 16.893C12.2261 15.6012 12.8604 14.4145 13.7917 13.4831C14.7231 12.5518 15.9097 11.9175 17.2016 11.6605C18.4934 11.4036 19.8325 11.5355 21.0494 12.0395C22.2663 12.5436 23.3064 13.3972 24.0381 14.4923C24.7699 15.5875 25.1605 16.8751 25.1605 18.1922C25.1616 19.0671 24.99 19.9336 24.6557 20.742C24.3214 21.5505 23.8309 22.2851 23.2123 22.9037C22.5937 23.5223 21.8591 24.0128 21.0506 24.3471C20.2422 24.6814 19.3757 24.853 18.5008 24.8519ZM25.435 12.8077C25.1275 12.8078 24.8269 12.7168 24.5712 12.5461C24.3154 12.3754 24.1161 12.1327 23.9983 11.8486C23.8805 11.5646 23.8496 11.252 23.9095 10.9504C23.9694 10.6488 24.1174 10.3718 24.3347 10.1543C24.5521 9.93684 24.8291 9.78871 25.1306 9.72866C25.4322 9.66862 25.7448 9.69936 26.0289 9.81698C26.313 9.93461 26.5558 10.1339 26.7266 10.3895C26.8975 10.6451 26.9886 10.9457 26.9886 11.2532C26.9895 11.4574 26.95 11.6597 26.8725 11.8486C26.795 12.0375 26.6809 12.2093 26.5369 12.354C26.3929 12.4987 26.2217 12.6136 26.0331 12.692C25.8446 12.7704 25.6424 12.8108 25.4382 12.8109L25.435 12.8077ZM32.7947 0H4.20693C3.17303 0 2.18147 0.410717 1.45039 1.1418C0.71931 1.87288 0.308594 2.86443 0.308594 3.89834L0.308594 32.4861C0.308594 33.52 0.71931 34.5116 1.45039 35.2427C2.18147 35.9738 3.17303 36.3845 4.20693 36.3845H32.7947C33.8286 36.3845 34.8202 35.9738 35.5513 35.2427C36.2823 34.5116 36.6931 33.52 36.6931 32.4861V3.89834C36.6931 2.86443 36.2823 1.87288 35.5513 1.1418C34.8202 0.410717 33.8286 0 32.7947 0ZM31.4043 23.5524C31.2996 25.634 30.8244 27.4784 29.3049 28.9939C27.7854 30.5094 25.9426 30.9942 23.8635 31.0933C21.7186 31.2143 15.288 31.2143 13.1431 31.0933C11.0615 30.9885 9.2236 30.5126 7.70163 28.9939C6.17965 27.4751 5.70129 25.6299 5.60221 23.5524C5.4812 21.4067 5.4812 14.9753 5.60221 12.832C5.70698 10.7505 6.1764 8.90607 7.70163 7.3906C9.22685 5.87512 11.0696 5.39595 13.1431 5.29686C15.288 5.17585 21.7186 5.17585 23.8635 5.29686C25.945 5.40163 27.7886 5.87755 29.3049 7.39628C30.8212 8.91501 31.3052 10.7602 31.4043 12.8418C31.5253 14.9794 31.5253 21.4051 31.4043 23.5524Z" fill="white"/>
</svg>
