<?xml version="1.0" encoding="UTF-8" standalone="no"?>
<svg
   width="63"
   height="63"
   viewBox="0 0 63 63"
   fill="none"
   version="1.1"
   id="svg4"
   sodipodi:docname="logo.svg"
   inkscape:version="1.3 (0e150ed6c4, 2023-07-21)"
   xmlns:inkscape="http://www.inkscape.org/namespaces/inkscape"
   xmlns:sodipodi="http://sodipodi.sourceforge.net/DTD/sodipodi-0.dtd"
   xmlns="http://www.w3.org/2000/svg"
   xmlns:svg="http://www.w3.org/2000/svg">
  <defs
     id="defs4" />
  <sodipodi:namedview
     id="namedview4"
     pagecolor="#ffffff"
     bordercolor="#999999"
     borderopacity="1"
     inkscape:showpageshadow="2"
     inkscape:pageopacity="0"
     inkscape:pagecheckerboard="0"
     inkscape:deskcolor="#d1d1d1"
     inkscape:zoom="16"
     inkscape:cx="45.09375"
     inkscape:cy="61.90625"
     inkscape:window-width="1920"
     inkscape:window-height="1000"
     inkscape:window-x="0"
     inkscape:window-y="44"
     inkscape:window-maximized="1"
     inkscape:current-layer="svg4" />
  <circle
     cx="31.5"
     cy="31.5"
     r="29"
     stroke="#035F74"
     stroke-width="5"
     id="circle1"
     inkscape:export-filename="circle1.svg"
     inkscape:export-xdpi="96"
     inkscape:export-ydpi="96" />
  <path
     d="M28.0542 16.4914L28.0544 16.4914L28.0534 16.4822L27.6979 13.2435L27.6731 13.0175L27.4459 13.0208L25.3603 13.0507C25.1928 13.0387 25.097 13.0357 24.9379 13.0306C24.7678 13.0252 24.5253 13.0176 24.0455 12.9942C23.5387 12.9696 22.1362 12.8957 20.8231 12.7475C20.1654 12.6733 19.538 12.5813 19.0591 12.4694C18.8187 12.4132 18.6251 12.3542 18.4867 12.2939C18.4216 12.2655 18.3748 12.2395 18.3431 12.2173C18.3765 12.1617 18.4438 12.0816 18.556 11.9919C18.8242 11.7776 19.3309 11.4631 19.758 11.2473L19.7935 11.2293C20.8918 10.6743 21.31 10.463 22.3443 10.3041C24.1394 10.1842 25.2339 10.1286 26.3996 10.1021L26.3996 10.1021L26.4044 10.1019L31.7385 9.87799L31.728 9.62821L31.7385 9.87799C31.9908 9.8674 35.8799 9.53481 38.9974 9.06907C39.9829 8.92182 40.6935 8.82857 41.2366 8.79669C41.7793 8.76483 42.135 8.79584 42.4173 8.8847C42.6062 8.94414 42.7087 9.04449 42.7597 9.15088C42.8126 9.2611 42.8242 9.40735 42.7743 9.57737C42.6736 9.92 42.3303 10.3178 41.7455 10.5242C41.6524 10.5571 41.5589 10.594 41.4533 10.6357C41.137 10.7606 40.7124 10.9282 39.8687 11.157C38.7437 11.4621 36.886 11.8711 33.6168 12.4041C33.4913 12.4246 33.4375 12.522 33.4264 12.5428C33.4086 12.5761 33.3999 12.6083 33.3954 12.6272C33.3856 12.6679 33.3802 12.7149 33.3765 12.7595C33.3689 12.8521 33.3656 12.9805 33.365 13.1358C33.364 13.4485 33.3742 13.8955 33.3901 14.4404C33.3996 14.7663 33.4112 15.1279 33.4237 15.5185C33.4531 16.4374 33.4876 17.5164 33.5126 18.6665C33.5838 21.947 33.5856 26.1188 33.4608 27.8807C33.253 30.8131 32.6516 33.8474 31.8541 36.4898C31.0552 39.1371 30.0655 41.3706 29.0913 42.7134C27.6119 44.7524 25.4553 46.6217 23.1265 47.7785C22.1053 48.2857 21.3129 48.5928 20.417 48.7835C19.5173 48.975 18.5026 49.0516 17.0325 49.0856C15.7154 49.1161 14.9942 49.0401 14.4083 48.8923C14.0254 48.7957 13.705 48.6713 13.3072 48.5169C13.0785 48.4281 12.8243 48.3293 12.5178 48.2202C10.4644 47.4893 8.91741 46.4742 7.03796 44.3927C6.11943 43.3754 5.43007 42.3289 4.97128 41.4753C4.74186 41.0484 4.57144 40.6723 4.4591 40.3745C4.36546 40.1263 4.31949 39.9511 4.30501 39.8507C4.32422 39.8273 4.351 39.7969 4.38559 39.7602C4.47578 39.6646 4.60677 39.5388 4.76277 39.4044C5.07843 39.1324 5.47428 38.8441 5.82258 38.6935C6.71958 38.3055 7.46335 38.1271 8.02577 38.1047C8.59791 38.0818 8.93235 38.2205 9.08526 38.3997C9.21203 38.5484 9.38573 38.8685 9.6291 39.3341C9.65083 39.3757 9.673 39.4182 9.69563 39.4616C9.91867 39.8891 10.1855 40.4004 10.5005 40.9334C11.1919 42.1031 12.1338 43.4095 13.4094 44.2057C13.4778 44.2484 13.5709 44.3106 13.6841 44.3861C14.1523 44.6987 14.9627 45.2396 15.7763 45.5727C17.4355 46.2522 19.027 46.3848 20.4816 45.9668C21.9359 45.5488 23.2283 44.5876 24.3027 43.1239C24.9979 42.177 25.7166 40.6331 26.3323 38.8838C26.9496 37.1298 27.4704 35.1489 27.7619 33.3159C28.3165 29.828 28.4508 21.9816 28.0542 16.4914Z"
     fill="#70BED0"
     stroke="#035F74"
     stroke-width="0.5"
     id="path1" />
  <path
     d="M10.3464 30.3238C10.3339 30.3504 10.3076 30.4188 10.3331 30.5035L10.3887 30.601C10.401 30.6145 10.4124 30.624 10.4184 30.6288C10.4309 30.6388 10.4422 30.646 10.4479 30.6496C10.4606 30.6575 10.4741 30.6648 10.485 30.6706C10.5081 30.6827 10.539 30.6978 10.5751 30.7149C10.6483 30.7496 10.7537 30.7976 10.8868 30.857C11.1534 30.976 11.5368 31.1434 12.0081 31.3468C12.9508 31.7535 14.2479 32.3052 15.6718 32.9038L20.6948 35.015L20.6943 36.4861C20.6941 37.3208 20.6783 38.0471 20.6523 38.5614C20.6423 38.7602 20.6309 38.9246 20.6186 39.0501C20.5134 39.0051 20.3794 38.9477 20.2189 38.8788C19.7893 38.6943 19.1709 38.4279 18.4096 38.0994C16.8871 37.4425 14.7935 36.5372 12.4962 35.5423L4.28318 31.9854L4.25005 31.4381C4.22677 31.0537 4.18991 30.3902 4.16817 29.9641L4.13697 29.3527L11.2435 25.8564C15.234 23.8932 19.0551 22.0191 19.7358 21.6913L20.6172 21.2669V23.1794V25.3314L15.603 27.7013C14.1841 28.3719 12.896 28.9892 11.9637 29.4436C11.4978 29.6707 11.1198 29.8575 10.8585 29.9902C10.7282 30.0563 10.625 30.1099 10.554 30.1487C10.5191 30.1677 10.4884 30.1851 10.4651 30.1995C10.4546 30.2061 10.439 30.2161 10.4239 30.2279C10.4177 30.2328 10.4015 30.2457 10.3849 30.2648C10.377 30.2739 10.3603 30.2942 10.3464 30.3238Z"
     fill="#70BED0"
     stroke="#035F74"
     stroke-width="0.5"
     id="path2" />
  <path
     d="M31.9761 49.0447C31.9336 49.0329 31.879 49.0073 31.8284 48.9736C31.812 48.9626 31.7974 48.9517 31.7849 48.9414C31.7859 48.9355 31.7871 48.929 31.7884 48.9221C31.8037 48.841 31.8337 48.7174 31.8825 48.5424C31.9796 48.194 32.1453 47.662 32.3978 46.901C32.9024 45.3801 33.7495 42.9565 35.0763 39.2821C36.5194 35.2857 37.4013 32.8772 37.9547 31.4368C38.2317 30.716 38.4248 30.242 38.5638 29.934C38.6334 29.7799 38.6876 29.6716 38.7304 29.5966C38.7751 29.518 38.7993 29.4902 38.8054 29.4845C39.024 29.275 39.4445 29.0444 39.8428 29.0528C39.905 29.0542 39.9569 29.0544 40.0029 29.0546C40.0648 29.0548 40.1161 29.0551 40.1677 29.0578C40.2141 29.0603 40.242 29.0646 40.2577 29.068C40.2629 29.1105 40.2597 29.1932 40.2287 29.3435C40.1654 29.6505 40.0088 30.1411 39.7352 30.9331C39.598 31.33 39.4336 31.7968 39.2395 32.348C39.0477 32.8924 38.8269 33.5191 38.5748 34.2423C37.6941 36.768 36.4765 40.1482 35.4235 42.996C34.8969 44.4199 34.4119 45.7099 34.0308 46.6929C33.6454 47.6872 33.3753 48.3436 33.275 48.5223C33.1506 48.744 32.9613 48.8538 32.6033 48.9757C32.4798 49.0178 32.3924 49.0362 32.3405 49.0436C32.3243 49.046 32.3124 49.0472 32.3044 49.0477C32.2912 49.0458 32.2811 49.0453 32.2766 49.0452C32.2627 49.0446 32.2506 49.0452 32.2457 49.0455C32.2343 49.0461 32.2204 49.0473 32.2106 49.0481L32.2095 49.0482C32.1867 49.0502 32.1603 49.0524 32.1305 49.0538C32.0642 49.0569 32.0084 49.0538 31.9761 49.0447Z"
     fill="#70BED0"
     stroke="#035F74"
     stroke-width="0.5"
     id="path3" />
  <path
     d="m 42.038032,31.653524 16.755769,8.048776 9e-4,1.2443 10e-4,1.2363 -8.3835,3.7194 c -2.3463,1.041 -4.4862,1.9898 -6.0437,2.6797 -0.7788,0.345 -1.4119,0.6252 -1.8524,0.8199 -0.1488,0.0658 -0.2756,0.1218 -0.3786,0.1672 0.0019,-0.0313 0.0042,-0.0654 0.0068,-0.1024 0.0206,-0.2909 0.0373,-1.3965 0.038,-2.4526 l 0.0011,-1.7584 2.0251,-0.8367 c 2.9449,-1.2168 5.0051,-2.0726 6.3267,-2.6285 0.6605,-0.2779 1.378149,-0.668493 1.689149,-0.804793 L 42.082592,35.723663 Z"
     fill="#70bed0"
     stroke="#035f74"
     stroke-width="0.5"
     id="path4"
     sodipodi:nodetypes="cccccccccccccccc" />
</svg>
