<svg width="37" height="37" viewBox="0 0 37 37" fill="none" xmlns="http://www.w3.org/2000/svg">
<path d="M6.06333 0C2.71464 0 0 2.71464 0 6.06333V30.3167C0 33.6654 2.71464 36.38 6.06333 36.38H30.3167C33.6654 36.38 36.38 33.6654 36.38 30.3167V6.06333C36.38 2.71464 33.6654 0 30.3167 0H6.06333ZM7.87015 7.79571H14.7455L19.628 14.7337L25.5526 7.79571H27.7181L20.6059 16.1226L29.376 28.5843H22.5023L16.8366 20.5348L9.96119 28.5843H7.79571L15.8587 19.1459L7.87015 7.79571ZM11.186 9.5281L23.4058 26.8519H26.0602L13.8404 9.5281H11.186Z" fill="white"/>
</svg>
